<svg width="51" height="51" viewBox="0 0 51 51" fill="none" xmlns="http://www.w3.org/2000/svg">
<path d="M25.216 50.4841C18.9587 50.4776 12.9267 48.1472 8.29039 43.945C3.65402 39.7428 0.743761 33.9682 0.124126 27.7416C-0.495509 21.515 1.21959 15.2802 4.93687 10.2467C8.65415 5.21317 14.1086 1.73974 20.2419 0.500241C26.3753 -0.739258 32.7504 0.343553 38.1306 3.53857C43.5108 6.73359 47.5126 11.813 49.3595 17.7916C51.2064 23.7702 50.7669 30.2217 48.1262 35.8946C45.4855 41.5674 40.8318 46.0572 35.068 48.493C31.9506 49.8103 28.6003 50.4874 25.216 50.4841Z" fill="#3A4B4C"/>
<path d="M21.656 20.403C21.7009 20.4746 21.7155 20.5611 21.6968 20.6436C21.678 20.726 21.6274 20.7977 21.556 20.843L21.54 20.852L16.18 24.105L12.448 18.572C12.4136 18.5171 12.397 18.4529 12.4006 18.3883C12.4042 18.3236 12.4278 18.2617 12.468 18.211C12.5047 18.1595 12.5563 18.1206 12.6159 18.0995C12.6755 18.0784 12.7401 18.0761 12.801 18.093L15.465 18.76L15.602 18.794C16.9051 16.5609 18.9295 14.8378 21.3421 13.9082C23.7547 12.9787 26.4118 12.898 28.8764 13.6795C31.3409 14.4609 33.4661 16.058 34.9023 18.2079C36.3385 20.3578 37.0001 22.9325 36.7783 25.5085C36.5566 28.0844 35.4646 30.5082 33.6822 32.381C31.8997 34.2538 29.5328 35.4642 26.971 35.8129C24.4091 36.1617 21.8048 35.628 19.5866 34.2998C17.3684 32.9716 15.6683 30.9279 14.766 28.505C14.613 28.0939 14.6295 27.6388 14.812 27.2399C14.9945 26.8411 15.3279 26.531 15.739 26.378C16.1501 26.2249 16.6051 26.2415 17.004 26.4239C17.4029 26.6064 17.713 26.9399 17.866 27.351C18.4923 29.0371 19.662 30.4668 21.1907 31.4147C22.7193 32.3626 24.52 32.7747 26.3088 32.586C28.0976 32.3973 29.7727 31.6186 31.07 30.3727C32.3673 29.1268 33.2129 27.4845 33.4736 25.7048C33.7344 23.9251 33.3953 22.1092 32.5099 20.5435C31.6245 18.9778 30.2431 17.7514 28.5836 17.0575C26.9241 16.3637 25.0809 16.242 23.3446 16.7116C21.6083 17.1811 20.0776 18.2153 18.994 19.651L21.383 20.251C21.4392 20.2499 21.4946 20.2637 21.5438 20.2909C21.5929 20.3182 21.6341 20.3578 21.663 20.406L21.656 20.403Z" fill="white"/>
</svg>
